<svg id="Layer_1" data-name="Layer 1" xmlns="http://www.w3.org/2000/svg" xmlns:xlink="http://www.w3.org/1999/xlink" viewBox="0 0 461.27 122.97"><defs><style>.cls-1{mask:url(#mask);}.cls-2{fill-rule:evenodd;fill:url(#linear-gradient);}.cls-3{filter:url(#luminosity-invert);}</style><filter id="luminosity-invert" filterUnits="userSpaceOnUse" color-interpolation-filters="sRGB"><feColorMatrix values="-1 0 0 0 1 0 -1 0 0 1 0 0 -1 0 1 0 0 0 1 0"/></filter><mask id="mask" x="0" y="16.27" width="65.54" height="91.07" maskUnits="userSpaceOnUse"><g class="cls-3"><path d="M51.4,79a14.22,14.22,0,0,1,.34-3.7l0,0c.21-1.09.48-2.17.62-3.27.38-2.94.7-5.88,1.07-8.82A6.7,6.7,0,0,1,53.82,62a18.89,18.89,0,0,0,1-3.31c.32-2.66.14-5.43.77-8,.85-3.46.38-7.22,2.34-10.42.13-.2.06-.52.08-.78a40,40,0,0,1,.46-5.5c.74-3.39,1.74-6.72,2.62-10.08.39-1.52-1.23-5.17-2.68-5.65A6.9,6.9,0,0,0,55,18a2.77,2.77,0,0,0-1.74,1.76c-.67,3-1.09,6.1-1.63,9.15-1.39,7.95-2.84,15.89-4.19,23.84-.92,5.4-1.71,10.83-2.54,16.24-.09.62-.1,1.26-.15,2l1.84-.52.17.46a8.63,8.63,0,0,0-1.29.74c-.39.32-.94.74-1,1.15-.15,1.89-.1,3.8-.22,5.7a23.67,23.67,0,0,1-.49,3.33c-.28,1.38-.72,2.73-1,4.12a49.94,49.94,0,0,0-.57,5c-.21,3.63-.38,7.27-.46,10.9a2.73,2.73,0,0,0,.82,1.58c.49.58,1.17,1,1.69,1.53,1.26,1.36,2.73,1.22,3.52-.44a6.63,6.63,0,0,0,.62-2.12c.26-2.51.44-5,.64-7.54,0-.31-.1-.64-.06-.94.25-1.83.52-3.65.8-5.63l.07,0a14.73,14.73,0,0,1,.91-3.84A14.24,14.24,0,0,1,51.49,80C51.46,79.68,51.42,79.36,51.4,79Zm-2.85-3.62a7,7,0,0,1-1.13,0l.45-2.14.73,0A20.36,20.36,0,0,1,48.55,75.42Zm.51-6.56-2.45-1.73,2.45-.53Zm-.32-3.41L48.4,65c.37-1.11.33-2.45,1.8-2.95-.28.91-1.28,1.77.1,2.56Zm1-4.89a5.67,5.67,0,0,1-1.26.64c.33-1,.51-1.49.68-2A14.77,14.77,0,0,0,50,56.5c.43-3.14.13-6.39,1.65-9.44.65.14,1,.32.63,1.32a27,27,0,0,0-.73,4.49C51.22,55.5,51.69,58.32,49.76,60.56Z"/><path d="M57.83,19.36a2.25,2.25,0,0,0-1.62-1.42c-2.48-.17-5-.08-7.48-.1-6.49-.07-13-.2-19.48-.22-3.68,0-7.36.07-11,.14a15.89,15.89,0,0,1-2.09,2.37c.05.59.08,1.18.08,1.78a15.46,15.46,0,0,1-.1,1.94,11.17,11.17,0,0,1,2.11,1.58l3.49-.2a5.1,5.1,0,0,1,1,.24,13.14,13.14,0,0,0,2.75.4c2.16-.12,4.33-.75,6.46-.56,2.85.27,5.78-.81,8.58.6.17.08.42,0,.63-.05a25.71,25.71,0,0,1,4.42-.46c2.79.17,5.57.61,8.35.92,1.25.14,3.95-2.06,4.15-3.57A8.54,8.54,0,0,0,57.83,19.36ZM16.67,21.89c.39-1,.68-1.74,1.06-2.7l.73,2.33Zm3.57.52c-.31-.46-.61-.93-.91-1.39l.35-.41c.93.18,2-.08,2.57,1.29C21.5,21.76,20.69,20.92,20.24,22.41Zm13.11-.68a17.91,17.91,0,0,0-3.66,0c-2.13.08-4.31,1-6.34-.53-.18-.13-.28-.45-.67-1.13l1.7.34a10.26,10.26,0,0,0,2.23.4c2.55-.1,5.1-.93,7.71.07C34.3,21.55,34.19,21.87,33.35,21.73Z"/><path d="M56,33.75a2.33,2.33,0,0,0-1.66-1.42c-2.54-.17-5.09-.08-7.64-.11C40.08,32.14,33.45,32,26.81,32c-3.76,0-7.52.06-11.28.12a16.78,16.78,0,0,1-2.14,2.37c0,.59.09,1.18.09,1.78a17.92,17.92,0,0,1-.11,2,11.09,11.09,0,0,1,2.16,1.58l3.56-.2a5.38,5.38,0,0,1,1,.24,13.69,13.69,0,0,0,2.81.4c2.2-.12,4.43-.74,6.6-.54,2.92.26,5.91-.81,8.77.6.18.09.43,0,.64-.05a27.91,27.91,0,0,1,4.52-.45c2.85.17,5.69.62,8.53.93,1.28.14,4-2.05,4.24-3.57A8.2,8.2,0,0,0,56,33.75ZM14,36.23c.41-1,.7-1.74,1.08-2.69l.76,2.32Zm3.65.53-.92-1.39L17,35c.95.19,2-.08,2.63,1.3C18.89,36.11,18.06,35.26,17.6,36.76ZM31,36.09a19.48,19.48,0,0,0-3.74,0c-2.18.08-4.41,1-6.48-.53a6,6,0,0,1-.68-1.14l1.73.34a10.19,10.19,0,0,0,2.29.4c2.6-.09,5.2-.92,7.88.08C32,35.92,31.86,36.24,31,36.09Z"/><path d="M48.29,99a2.27,2.27,0,0,0-1.59-1.42c-2.45-.16-4.91-.07-7.36-.09-6.39-.07-12.78-.19-19.17-.21-3.62,0-7.24.07-10.86.15a16.91,16.91,0,0,1-2.07,2.37c0,.59.09,1.18.09,1.78s0,1.31-.1,1.94a11.23,11.23,0,0,1,2.07,1.58l3.43-.2a4.35,4.35,0,0,1,1,.23,11.53,11.53,0,0,0,2.71.4c2.12-.12,4.26-.75,6.35-.56,2.81.27,5.69-.82,8.44.59.17.09.41,0,.62-.05a25,25,0,0,1,4.36-.46c2.74.17,5.47.61,8.21.92,1.23.13,3.89-2.07,4.08-3.58A8.36,8.36,0,0,0,48.29,99ZM7.78,101.51c.4-1,.68-1.74,1-2.7.3,1,.5,1.63.72,2.32Zm3.52.52-.89-1.39.34-.42c.91.18,2-.08,2.53,1.29C12.54,101.37,11.74,100.53,11.3,102Zm12.9-.69a17.33,17.33,0,0,0-3.6,0c-2.1.08-4.24,1-6.24-.52-.18-.14-.27-.45-.66-1.13l1.67.33a9.54,9.54,0,0,0,2.2.4c2.51-.1,5-.93,7.59.06C25.13,101.16,25,101.48,24.2,101.34Z"/><path d="M48.29,84a2.22,2.22,0,0,0-1.56-1.42c-2.42-.16-4.84-.06-7.26-.09-6.3-.06-12.6-.18-18.9-.19-3.57,0-7.15.07-10.72.14a15.63,15.63,0,0,1-2,2.38c0,.59.08,1.18.08,1.78s0,1.3-.1,1.94a11,11,0,0,1,2,1.58l3.39-.21a4.82,4.82,0,0,1,1,.24,12.41,12.41,0,0,0,2.67.4c2.09-.13,4.2-.76,6.26-.56,2.78.26,5.62-.83,8.33.58.17.09.41,0,.61,0a24.26,24.26,0,0,1,4.3-.46c2.7.16,5.39.6,8.09.91,1.22.14,3.84-2.06,4-3.58A8.55,8.55,0,0,0,48.29,84ZM8.35,86.53c.39-1,.67-1.74,1-2.7l.71,2.32Zm3.46.52-.87-1.4.34-.41c.89.18,1.93-.08,2.49,1.29C13,86.39,12.25,85.55,11.81,87.05Zm12.73-.7a16.86,16.86,0,0,0-3.55,0c-2.07.08-4.19,1-6.15-.53-.18-.13-.27-.45-.65-1.13l1.64.34a9.84,9.84,0,0,0,2.17.4c2.48-.1,4.95-.94,7.48,0C25.46,86.17,25.36,86.49,24.54,86.35Z"/><path d="M49.48,69.26A2.17,2.17,0,0,0,48,67.84c-2.35-.16-4.72-.06-7.07-.08-6.14-.06-12.28-.17-18.42-.18-3.48,0-7,.08-10.45.15a15.35,15.35,0,0,1-2,2.38c.05.59.08,1.18.08,1.78s0,1.3-.1,1.94a10.63,10.63,0,0,1,2,1.58q1.65-.12,3.3-.21a4,4,0,0,1,.93.23,11.23,11.23,0,0,0,2.61.4c2-.13,4.09-.76,6.1-.57,2.7.26,5.47-.82,8.11.58.17.09.4,0,.6,0a23.06,23.06,0,0,1,4.19-.46c2.63.16,5.25.6,7.88.9,1.19.14,3.75-2.07,3.94-3.58A8.93,8.93,0,0,0,49.48,69.26ZM10.56,71.87c.37-1,.65-1.74,1-2.7.29,1,.49,1.62.69,2.32Zm3.37.51c-.28-.46-.57-.92-.85-1.39l.33-.41c.87.18,1.88-.09,2.43,1.28C15.12,71.73,14.36,70.88,13.93,72.38Zm12.4-.7a15.41,15.41,0,0,0-3.46,0c-2,.08-4.08,1-6-.52a5.65,5.65,0,0,1-.63-1.13l1.6.33a9.34,9.34,0,0,0,2.11.4c2.41-.1,4.82-.94,7.29,0C27.23,71.5,27.13,71.82,26.33,71.68Z"/><path d="M51.89,48.93a2.17,2.17,0,0,0-1.49-1.42c-2.29-.16-4.6-.06-6.9-.08-6,0-12-.15-18-.16-3.4,0-6.79.09-10.19.17a15.61,15.61,0,0,1-1.94,2.38c0,.58.08,1.18.08,1.78s0,1.3-.1,1.94a10.35,10.35,0,0,1,1.94,1.57c1.07-.07,2.14-.15,3.22-.21a5.28,5.28,0,0,1,.91.23,10.74,10.74,0,0,0,2.54.4c2-.13,4-.76,6-.57,2.63.25,5.34-.84,7.91.56.16.09.39,0,.58-.05A22.09,22.09,0,0,1,40.53,55c2.57.16,5.13.59,7.69.89,1.16.14,3.65-2.07,3.84-3.58A9.14,9.14,0,0,0,51.89,48.93Zm-38,2.64c.36-1,.63-1.74,1-2.69l.67,2.32Zm3.29.52-.83-1.39.32-.42c.85.18,1.84-.08,2.37,1.28C18.36,51.43,17.62,50.59,17.2,52.09Zm12.1-.72a15.29,15.29,0,0,0-3.38,0c-2,.09-4,1-5.84-.51a5.32,5.32,0,0,1-.62-1.13l1.56.33a8.93,8.93,0,0,0,2.06.4c2.36-.11,4.71-.94,7.12,0C30.17,51.19,30.07,51.51,29.3,51.37Z"/><path d="M16.17,73c.59,0,1.27-.49,1.33-.84.25-1.54.28-3.11.41-4.67.34-4,.74-8.1,1-12.16.17-2.3.25-4.61.35-6.92a15.69,15.69,0,0,1-2-1.6c-.52,0-1.05-.09-1.58-.16s-1.15-.18-1.71-.3a7.48,7.48,0,0,1-1.49,1.13c0,.74,0,1.47,0,2.21,0,.21-.18.39-.25.59A5.73,5.73,0,0,0,11.81,52c0,1.37.48,2.8.21,4.11-.36,1.75.47,3.72-.89,5.29-.09.1,0,.27,0,.4a12.44,12.44,0,0,1,.21,2.83c-.27,1.72-.78,3.4-1.17,5.1-.18.77,1.65,2.72,3,3A10.79,10.79,0,0,0,16.17,73Zm-.46-26.06,2.34,1L16,48.11Zm-.62,2.17,1.28-.39.35.27c-.2.55,0,1.25-1.26,1.45C15.62,50,16.4,49.58,15.09,49.11Zm0,8.29a8.29,8.29,0,0,0,.15-2.29c0-1.34-.71-2.82.74-3.9a5.16,5.16,0,0,1,1-.29c-.18.49-.28.76-.37,1a4.67,4.67,0,0,0-.45,1.35c0,1.61.6,3.3-.39,4.82C15.25,58,15,57.91,15.13,57.4Z"/><path d="M32.53,75.38c.59,0,1.29-.41,1.36-.77.33-1.51.43-3.08.63-4.63.53-4,1.11-8.05,1.6-12.08.27-2.29.47-4.59.67-6.9a14.7,14.7,0,0,1-1.93-1.71c-.52-.07-1-.15-1.57-.25s-1.15-.24-1.7-.4a6.82,6.82,0,0,1-1.54,1c0,.74,0,1.48-.08,2.21,0,.21-.2.38-.27.58a5.23,5.23,0,0,0-.56,1.64c-.05,1.36.35,2.82,0,4.11C28.73,60,29.46,62,28,63.46c-.09.09,0,.26,0,.4a11.72,11.72,0,0,1,.08,2.83c-.35,1.7-.94,3.35-1.41,5-.21.76,1.53,2.81,2.84,3.2A11,11,0,0,0,32.53,75.38Zm.74-26,2.3,1.13-2.1,0Zm-.71,2.13,1.29-.32.33.29c-.22.54-.07,1.25-1.31,1.38C33,52.36,33.84,52,32.56,51.46Zm-.35,8.28a7.83,7.83,0,0,0,.25-2.28c.09-1.34-.58-2.86.92-3.85a5.19,5.19,0,0,1,1-.23l-.42,1a4.29,4.29,0,0,0-.51,1.32c-.1,1.61.44,3.33-.62,4.79C32.3,60.36,32,60.24,32.21,59.74Z"/></g></mask><linearGradient id="linear-gradient" x1="32.77" y1="107.35" x2="32.77" y2="16.27" gradientUnits="userSpaceOnUse"><stop offset="0" stop-color="#66280f"/><stop offset="0.24" stop-color="#ed7e23"/><stop offset="0.44" stop-color="#ffcc04"/><stop offset="0.75" stop-color="#b0ca36"/><stop offset="1" stop-color="#1f9cd8"/></linearGradient></defs><title>Kufundo-com-logo-black</title><g class="cls-1"><polygon class="cls-2" points="51.45 107.35 0 106.07 15.14 16.27 65.54 16.27 51.45 107.35"/></g><path d="M249.66,81.8c-.22.61-.42,1.22-.66,1.81-.44,1-.92,2-1.35,3.09a5.71,5.71,0,0,0-.22,1,4.56,4.56,0,0,1-.26,1.36c-1.33,2.53-2.67,5-4.1,7.53a5.13,5.13,0,0,1-1.46,1.25c-.58.44-1.5.71-1.73,1.28-.64,1.56-1.61,1.2-2.65.71-4.82-2.25-7.23-6.23-7.84-11.34-.78-6.59,1-12.91,2.29-19.25.55-2.6,1.17-5.18,1.6-7.86-1.34.78-2.73,1.15-3.44,2.87s-2.26,3.21-3.41,4.82a24,24,0,0,0-2.6,3.89c-1.2,2.65-2.1,5.44-3.21,8.13-.41,1-1.19,1.84-1.56,2.84-.55,1.5-.89,3.09-1.32,4.64-.75,2.73-1.5,5.45-2.22,8.18-.21.77-.61,1-1.25.53a27.09,27.09,0,0,1-4.21-3,5.24,5.24,0,0,1-1.21-3.1c-.19-2.14,0-4.3-.07-6.46a3.26,3.26,0,0,0-.31-1.35c-.69,2-2.55,3.63-2.13,6.08.07.44-.47,1-.75,1.47-1.2,2.09-1.78,4.5-3.77,6.21a11,11,0,0,0-2.28,3.65c-1.34,2.78-5.26,4-7.66,2.13a12.85,12.85,0,0,1-5-10.24c0-3.49.51-7,.8-10.48,0-.25,0-.5,0-1.15-.5.48-.86.69-1,1-.59,1.33-1.11,2.68-1.66,4-.29.69-.64,1.09-1.41.5-.2-.16-.6,0-.91-.07a4.53,4.53,0,0,1,.32.84,5.87,5.87,0,0,1,.12,1.56,7.93,7.93,0,0,1-.49,2.28c-.15.35-.76.5-1.16.74l-.25-.34c0,.15-.12.34-.06.44,1.05,1.9-.6,2.88-1.49,4-.64.78-2,.89-2.3,2.16a3.33,3.33,0,0,1-1.47-.26c-6.77-4-8.78-10.06-7.63-17.49.35-2.21.75-4.42,1.14-6.73a20.41,20.41,0,0,1-8.91-.66c-.92-.31-1.55.19-1.22,1.31a16.49,16.49,0,0,0,.65,2.1c1.75,3.75,1.48,7.75,1.52,11.7a32.67,32.67,0,0,1-.44,7.35,40.65,40.65,0,0,0-1,6.64c-.08,1.33,0,2.67-.11,4-.07,1-.29,1.91-.49,3.21.8.49.46,1.43-.11,2.5-1,1.78-1.79,3.62-2.68,5.44a3.08,3.08,0,0,1-3.62,1.84c-2.36-.81-5-1.43-6.8-3a13.08,13.08,0,0,1-4.38-7.74c-.24-1.76-.3-3.37-1.54-4.77-.59-.68-.56-1.51.54-1.83s1.39-.71.31-1.53a1.84,1.84,0,0,1-.65-1.29c0-1.61.19-3.22.23-4.83a24.26,24.26,0,0,0-.17-2.55l.46-.26,1.53,1.88a13.65,13.65,0,0,0,.45-2.13c.07-1.66-.22-3.4,1.4-4.58a.38.38,0,0,0,.17-.25c-.1-1.3-.22-2.6-.36-4.33-1.67,1.62-1.83,3.34-2,5a12.88,12.88,0,0,1-.41,2.42c-.07.24-.66.31-1,.46a4.92,4.92,0,0,1-.14-1c.06-1.15.14-2.31.26-3.46a11.8,11.8,0,0,1,.35-1.79c.06-.25.34-.44.38-.68.12-.94-.47-2,1.1-2.52.78-.25,1.25-1.42,1.92-2.25-.72-1.59-.62-1.76,1.29-2a.7.7,0,0,0,.37-.25,2.27,2.27,0,0,0,.21-.44c-.23-.13-.45-.25-.65-.38s-.42-.29-.67-.46a4.65,4.65,0,0,1-.88.72.94.94,0,0,1-.8-.07c-.13-.08-.14-.65-.08-.67,1.94-.72,1.15-2,.59-3.15l-.77,1.31a9.77,9.77,0,0,1-.52-1.25,7.07,7.07,0,0,1-.2-1.64,4.5,4.5,0,0,1,.34-1.92,12.24,12.24,0,0,0,1.32-6.25c0-2.52.4-5.3,2-6.95.23-1.39.41-2.35.55-3.32s.27-2.08.4-3.13c0-.1,0-.21,0-.31.26-1.37.43-2.77.8-4.12.71-2.6,1.71-5.13,1.52-7.9a5.37,5.37,0,0,1,.23-1.87c1.14-3.86,2.3-7.72,3.53-11.56A2.82,2.82,0,0,1,157,20.73a6.32,6.32,0,0,1,4.21,6.36c-.13,1.34-1,2.6-1.36,3.93-1.14,4.14-2,8.37-3.37,12.42a43.78,43.78,0,0,0-1.7,9c-.1.76-.58,1.46-.75,2.22-.7,3.19-1.4,6.37-2,9.58-.09.48.42,1.19.84,1.59.91.86,2.14,1.44,2.87,2.42a5.34,5.34,0,0,0,4.33,2.07,16.73,16.73,0,0,0,9.48-1.59,2.63,2.63,0,0,0,1.13-1.42c.68-2.26,1.28-4.54,1.85-6.83.32-1.26,1.23-1.74,2.24-1.34a20,20,0,0,1,4.75,2.62,3.4,3.4,0,0,1,.72,2.69A54.06,54.06,0,0,1,179,70.6c-.74,3-1.67,5.92-2.31,8.93-.7,3.36-1.22,6.76-1.7,10.17a9.52,9.52,0,0,0,.45,2.63c.53-.36.91-.49,1.08-.75a91.66,91.66,0,0,0,5.4-8.65c2.46-5,4.52-10.1,6.83-15.12.73-1.61,1.75-3.08,2.58-4.65.65-1.25,1.26-2.53,1.8-3.83.63-1.56,2.19-2.14,3.37-.95A37.06,37.06,0,0,1,200.24,63a2.26,2.26,0,0,1,0,1.65c-.68,2.41-1.43,4.8-2.16,7.19a61.89,61.89,0,0,0-2.28,7.76c-.95,5.8-1.57,11.66-2.32,17.49a2.28,2.28,0,0,0,.05.94c.26.81.56,1.61.85,2.41a10.13,10.13,0,0,0,2.07-1.54,87.28,87.28,0,0,0,10.25-16.36c2.51-5.15,3.08-10.63,4.26-16,.33-1.49.55-3,.92-4.47a1.68,1.68,0,0,1,.91-1.08c2.48-.77,7,2.17,7.08,4.71a14.31,14.31,0,0,1-.61,4.19c-.88,3.28-1.92,6.51-2.83,9.78a8.38,8.38,0,0,0,0,2l6.31-12.35a30.82,30.82,0,0,1,6.43-8.68c1.9-1.76,4.2-2.87,6.61-1.69s4.5,3.21,4.28,6.25a83.32,83.32,0,0,1-1.35,8.85c-.69,3.86-1.65,7.69-2.18,11.58-.45,3.36-.62,6.78.7,10.09.53,1.31,1.22,1.3,2.13.58a4.69,4.69,0,0,0,1.36-1.49c2.38-5.14,4.82-10.25,7-15.48,1.28-3.11,2-6.44,3.12-9.62a9.17,9.17,0,0,1,1.8-2.3,9.18,9.18,0,0,1,.66-.85,49.35,49.35,0,0,1,5.36-5.18c3.24-2.35,6.71-2.11,10.06,0,.91.58,1.3.2,1.53-.74.16-.67.57-1.29.75-2a9,9,0,0,0,.23-1.94c0-1.14-.55-2.43.86-3.2a.55.55,0,0,0,.2-.39c1.07-9.47,4.7-18.29,7-27.46.13-.56.3-1.12.42-1.68.47-2.17,2.09-3,4.09-1.94a20.59,20.59,0,0,1,3.14,2.08,2.85,2.85,0,0,1,1,3.25c-1,3.16-1.95,6.3-2.92,9.45-.83,2.7-1.7,5.39-2.47,8.11-.93,3.34-1.72,6.72-2.68,10.05-.65,2.25-1.63,4.4-2.2,6.67s-.72,4.33-1.09,6.5c-.22,1.31-.55,2.61-.78,3.92-.54,3.07-1.26,6.13-1.52,9.22s0,6.41-.06,9.62c0,.77-.32,1.54-.27,2.29a14,14,0,0,0,.6,2.85,24.51,24.51,0,0,0,.94,2.4,14.12,14.12,0,0,0,1-1,67.11,67.11,0,0,0,7.89-13.57c.56-1.3,1.33-2.51,1.78-3.84.57-1.66.83-3.42,1.37-5.09a42.31,42.31,0,0,1,2.39-6.55,71.6,71.6,0,0,1,4.7-7.72,16.14,16.14,0,0,1,3-3.16,3.81,3.81,0,0,1,6.12,2c.69,2.67,1.22,5.37,1.9,8,.12.45.67,1.07,1.07,1.11a10.25,10.25,0,0,0,3.71-.09c2.64-.77,5.22-1.79,7.81-2.73,1.36-.5,2.69-.59,3.46.82s0,2.6-1.19,3.33c-2.65,1.56-5.34,2.92-8.65,2.1-2.11-.52-4.31-.68-6.26-1,.13,1.07.26,2.5.5,3.92.3,1.75-.87,2.78-1.86,4.07l1,.81s.05.13,0,.14c-1.39,1.33-.39,3.24-1.15,4.68-.16.3-.84.32-1.64.59.08,1.33.23,2.9.23,4.47a8.75,8.75,0,0,1-.45,2c-.13.56-.23,1.13-.33,1.69-.05.25,0,.64-.1.74-1.55,1.17-1.52,3.66-3.67,4.36-.41.13-.69.71-1,1-6.51-1-9.16-5.8-11-11.1l-2.9,6.62L282.11,95c-.19.85-.34,1.76-.59,2.64s-.1,1.89-1.4,1.89c-.26,2.29-3.32,1.88-3.84,4,0,.2-1,.43-1.32.28-3.91-1.71-6.46-4.57-7.06-8.9-.08-.51.34-1.08.53-1.62-1-.29-1.46-2.57-.59-3.41a2.08,2.08,0,0,0,.09-3.24,2.8,2.8,0,0,1-.69-1.52,14,14,0,0,1-.05-2.82c.06-.85.28-1.69.47-2.76-.54-.81-1.19-.83-1.85.25-1.29,2.08-2.6,4.15-3.89,6.23a1.4,1.4,0,0,0-.18.6c-.09,1.94-1.3,3.22-2.58,4.46a5.74,5.74,0,0,0-.67.87c-.92,1.28-1.8,1.44-3.26.75-4.66-2.18-5.57-4.56-5.27-9.9,0-.3,0-.6,0-.89ZM151.2,114.72c.76-1.21,1.43-2.13,2-3.12,3.23-6.24,4.72-15.43,5.16-22.45a41.38,41.38,0,0,0-1.76-14.59A5.84,5.84,0,0,0,152,70.12c-.94-.22-1.35-.09-1.44.95-.14,1.67-.36,3.34-.64,5-.34,2-.87,4-1.16,6s-.38,4.06-.54,6.09a46.1,46.1,0,0,0-.28,4.69c.11,3.86.15,7.74.58,11.58a89.92,89.92,0,0,0,1.87,9.12C150.45,113.84,150.73,114.06,151.2,114.72ZM291.39,89.05c.51,1.77.93,3.49,1.51,5.15.39,1.11,1.23,1.2,2,.25a28.93,28.93,0,0,0,5.46-11.17c.75-3.34,1.67-6.65,2.3-10,.4-2.18.73-4.47-1.49-6.15-.84-.63-1.6-1.07-2.23-.07a49.88,49.88,0,0,0-4.11,7.28c-1,2.53-1.14,5.45-2.22,8C291.6,84.55,292.43,86.9,291.39,89.05ZM255.91,87.8l.38.16a2.93,2.93,0,0,0,.69-.55c1.33-1.93,2.63-3.88,3.95-5.82a21.14,21.14,0,0,0,2-2.8c1.1-2.29,2-4.67,3-7,.6-1.43,1.21-2.86,1.78-4.31.28-.72-1.37-3.94-2.13-4.09a1.27,1.27,0,0,0-.93.35c-2.54,2.37-4.93,4.88-5.84,8.35-.74,2.86-2.34,5.44-2.34,8.54C256.47,83,256.11,85.4,255.91,87.8Zm-64-6.68-.41-.22a37.65,37.65,0,0,0-2,5.1,28.74,28.74,0,0,0-.16,4.47,12.79,12.79,0,0,1-.56,2.21l.43.22c.32-.43.86-.83.94-1.31C190.79,88.11,191.32,84.61,191.87,81.12ZM271.4,97q-.15-3-.31-6C269.73,91.84,269.73,94.67,271.4,97Zm-128.23,9.62.74-.09c-.19-2-.39-3.93-.58-5.9l-.58,0Zm40.1-22,.3.11c1.05-1.52,2.13-3,3.11-4.59.13-.21-.21-.71-.45-1.43Zm48.26,5.42.65.06V85.87l-.13,0ZM148.2,58l-1.77,2.54C148.37,60.23,148.77,59.56,148.2,58Zm-1.11-.17.46.15,1.27-4.2-.4-.11Zm-.9,10.6-.29.09a8.06,8.06,0,0,0-.61,1.46,2.74,2.74,0,0,0,.15,1c.29-.23.78-.43.82-.7A8.5,8.5,0,0,0,146.19,68.42Zm87.27,9.37-.45-.08c0,.88-1.59,1.51-.1,2.91C233.13,79.5,233.29,78.64,233.46,77.79Z"/><path d="M100.08,98.31l1.24.49a32.6,32.6,0,0,1-3.38,4,39.49,39.49,0,0,1-6.19,4.51,5.61,5.61,0,0,1-3.66.22,15.8,15.8,0,0,1-6.17-3.29c-5.58-4.27-10.2-9.51-15.16-14.41a8.94,8.94,0,0,0-.86-.6c-.25,2.08-.52,3.91-.7,5.75-.3,3.07-.44,6.16-.89,9.21-.13.89-1,2.22-1.7,2.32s-1.8-.87-2.69-1.4c-.13-.08-.18-.32-.3-.36-2.38-.76-2.13-2.79-2-4.56.33-4.92.79-9.83,1.28-14.73a24.3,24.3,0,0,1,.78-2.7,26.24,26.24,0,0,0,.55-3.5c.13-1.88.07-3.78.23-5.66,0-.42.59-.85,1-1.19s.73-.41,1-.93l-1.76.57c.14-1.21.21-2.21.36-3.19.72-4.76,1.43-9.53,2.21-14.28.63-3.87,1.33-7.74,2-11.6,1.2-6.49,2.43-13,3.63-19.47a9.2,9.2,0,0,0,.2-2,2.14,2.14,0,0,1,1.87-2.36,7.53,7.53,0,0,1,3.52.36c1.51.53,3.05,4.18,2.64,5.77-.85,3.29-1.83,6.55-2.54,9.87a45.17,45.17,0,0,0-.51,5.6,3.23,3.23,0,0,1-.19,1.08c-1.72,3.65-1.47,7.71-2.38,11.53a31.48,31.48,0,0,0-.37,4.72c-.15,1.83-1,3.59-1.36,5.42-.54,3-.9,6-1.33,9.06-.08.51-.16,1-.23,1.52-.08.69-.15,1.38-.23,2.06l.44.31a21.44,21.44,0,0,0,3.52-2.14A91.54,91.54,0,0,0,89.25,51.84c4.59-8,7.55-16.71,11.07-25.18.34-.81,1.39-1.92,2-1.87,1.07.08,2.67.78,3,1.61A10.65,10.65,0,0,1,106,32c-.57,2.53-1.94,4.89-3,7.33-1.6,3.86-3,7.81-4.85,11.53-.68,1.35-1.33,3.07-3,3.84-.25.13-.57.64-.5.86.59,1.89-.67,3-1.62,4.32-.19.25-.4.48-.6.72a8.8,8.8,0,0,1-1.67,1.67c-.88,3.94-3.73,6.74-6,9.86-.2.27-.77.25-1.1.46a10.5,10.5,0,0,0-2.38,1.68c-1.06,1.21-1.72,2.81-2.9,3.85a25.86,25.86,0,0,1-5,3.24c-.46.24-1.32-.27-2.08-.45-1.21,1.71-1.2,2.59,0,4.4a57,57,0,0,0,10.56,12,8.9,8.9,0,0,0,11.72.36,63.13,63.13,0,0,0,4.84-4.27,2.35,2.35,0,0,0,.69-3c-1.56-3.83-1.35-7.84-.51-11.79,1.28-6,2.72-12,4-18,.33-1.5,1.32-2,2.56-1.46a14.52,14.52,0,0,1,4.21,2.33,3.94,3.94,0,0,1,.91,2.93,32.74,32.74,0,0,1-1.09,5.22c-.81,3.29-1.74,6.56-2.5,9.86-.89,3.85-2.22,7.67-1.44,11.72a5.8,5.8,0,0,0,.41,1,5.4,5.4,0,0,0,1-.87c1.91-3.06,4-6,5.63-9.24,2.32-4.61,4.22-9.43,6.41-14.11,1-2.22,2.38-4.3,3.53-6.47a19,19,0,0,0,1-2.33c.62-1.56,2.21-2.07,3.39-.87a41.05,41.05,0,0,1,3.66,4.52,1.69,1.69,0,0,1,.2,1.34c-.88,3-1.85,6-2.74,9-.46,1.54-.91,3.09-1.22,4.66-1,5-2,10.09-2.77,15.17a31.33,31.33,0,0,0,.06,6.12,1.76,1.76,0,0,0,.74,1.23c.19.12.89-.28,1.14-.61,2.75-3.76,5.73-7.4,8.1-11.39s4.25-8.55,6.37-12.82a3.39,3.39,0,0,1,2.76-2.09c.09.29.16.46.13.48-2.46,2-2.74,5.13-4.11,7.69a57.62,57.62,0,0,0-2.33,5.67c-.11.29-.35.62-.29.88.44,1.91-.82,3.24-1.64,4.65-1.69,2.93-3.6,5.73-5.43,8.59-1.44,2.24-5.2,3.12-7.27,1.47a13,13,0,0,1-5.09-10.38c0-3.34.44-6.69.68-10,0-.33,0-.67,0-1l-.38-.15c-.65,1.34-1.36,2.67-1.94,4-.37.88-.4,2.09-1.81,1-.13-.1-.45,0-.68.07,0,.26.07.52.13.77a4.51,4.51,0,0,1,.38,1.46,9.18,9.18,0,0,1-.63,2.59c-.13.32-.75.42-1.41.75,0-.27,0-.11,0,0a4.28,4.28,0,0,1-2.26,4.47c-.39.22-1,.44-1.08.78-.47,1.7-1.32,1.1-2.18.43-1.48-1.15-2.93-2.32-4.34-3.45ZM77.23,75.24c.45-.31,1-.49,1.19-.86,1.07-1.85,2.9-2.9,4.38-4.32.21-.2.33-.79.2-.94a1.2,1.2,0,0,0-1-.36,15,15,0,0,0-1.9.87l.44,1.24a6.84,6.84,0,0,1-1.16.24c-.67,0-1.34,0-2.22,0a7.73,7.73,0,0,1,.71,1.65,7.07,7.07,0,0,1-.15,1.7l-.42,0L76.43,73c-.92.9-1.73,1.69-2.55,2.46a3.54,3.54,0,0,1-.67.35,26,26,0,0,0-2.94,1.85c-.32.26-.24,1-.34,1.48,1.38-.2,2.44-.33,3.49-.51A3.52,3.52,0,0,0,76.15,75c0-.2.19-.42.36-.78ZM120,92.36c.22-.94.46-1.67.57-2.43.23-1.66.35-3.33.6-5,.16-1.08-.32-2.36.85-3.2.12-.08,0-.47,0-.72l-.54-.15A45,45,0,0,0,119.52,86a26.56,26.56,0,0,0-.22,4.11,26.54,26.54,0,0,1-.51,2.76ZM68,48c-1.75,3.22-1.56,6.26-1.7,9.21a4.79,4.79,0,0,1-1.11,3.23c-.23.27-.2.77-.36,1.53a4.89,4.89,0,0,0,.86-.54c1.94-2.1,1.43-4.85,1.89-7.33.29-1.59.46-3.21.64-4.81A5.65,5.65,0,0,0,68,48ZM89.14,59.41,88.89,59a7.69,7.69,0,0,0-.78.84c-.24.36-.29.92-.59,1.15-1.47,1.13-1.5,1.59.12,2.74Zm27.43,19.7H116c-.59,2-2.42,3.46-2.51,5.79,1.09-1.62,2.1-3.07,3-4.57C116.72,80,116.57,79.52,116.57,79.11ZM65.78,66V63l-1.35,2.86Zm34.58,17.57.7.26,1-3.51-.28-.1ZM63,68.13l2,1.51V67.81Zm1.58,6.31-.46,0-1,1.89c.72-.12,1.42-.12,1.45-.26A7,7,0,0,0,64.57,74.44Z"/><path d="M373.26,99.76c-8.87-2.75-11.58-9.29-10.88-18.31-.7.78-1.09,1.18-1.43,1.62-2,2.5-4,5-5.84,7.55a10,10,0,0,0-.93,2.93c-.14.49-.13,1.26-.45,1.44-1.75,1-2.77,3.24-5.25,3a1.5,1.5,0,0,0-1.1.48,2.71,2.71,0,0,1-3.59.52c-5.89-3.44-10-8-10.74-15.28a23.34,23.34,0,0,1,1-10.19c1.64-4.51,4-8.9,8.12-11.85a11,11,0,0,1,12.28.43c1.66,1.31,1.76,5.2,0,6.82a1.12,1.12,0,0,1-1.11,0,2.69,2.69,0,0,1-.71-1.56,28.19,28.19,0,0,0,.44-3.1c-.05-.75-.69-2.06-1.08-2.06-1.1,0-2.61.18-3.24.92a48.34,48.34,0,0,0-3.95,6,31,31,0,0,0-4.93,19.3c.15,1.9.62,3.82,2.3,5a3.51,3.51,0,0,0,2.64.73,16.68,16.68,0,0,0,5.52-2.87c4.63-4.28,8.86-9,11.8-14.62,1.37-2.64,2.52-5.4,3.91-8,.84-1.6,2-3.05,2.94-4.59A30.38,30.38,0,0,1,370.72,61a24.17,24.17,0,0,1,3.21-3.42,3.83,3.83,0,0,1,6.19,2.09c.69,2.61,1.18,5.27,1.85,7.88.12.46.65,1.09,1,1.14a9.4,9.4,0,0,0,3.55,0c2.44-.7,4.81-1.68,7.21-2.54,1.19-.43,1.14-1.4,1-2.35-.21-1.53-.61-3.14,1.11-4s3.15.27,4.17,1.37c1.31,1.41,2.92,2.85,2.86,5,0,1.11-.56,2.21-.68,3.33-.2,1.86-.21,3.74-.4,5.6-.08.82-.45,1.6-.6,2.41a18.06,18.06,0,0,0-.12,2l.63.15c.4-.81.84-1.59,1.18-2.42,2.12-5.18,4.22-10.36,6.34-15.54a11.34,11.34,0,0,1,1.06-1.93c2.07-3,5.44-3.59,8.72-2,2.95,1.48,3.5,3.82,3.29,6.63-.29,4-.69,8.09-1,12.14a1.06,1.06,0,0,0,.34.87c.62-.92,1.21-1.87,1.89-2.74,2-2.52,3.92-5,5.94-7.49,1.79-2.2,6.22-1.33,8,0,3.13,2.39,4.36,8.4,2.49,11.89-.1.18-.34.36-.32.51.65,4.61-1.13,9-1.1,13.58a23,23,0,0,0,.69,3.89,15.64,15.64,0,0,0,3.32-2.07,43.22,43.22,0,0,0,8.42-13.55c1.29-3.16,3.12-6.11,4.69-9.17.28-.55.42-1.18.73-1.71a2.73,2.73,0,0,1,.95-.93c.14-.08.74.24.73.37a3.18,3.18,0,0,1-.34,1.19c-.68,1.5-1.4,3-2.07,4.48-1.35,3-2.69,5.94-4,8.93-.44,1-.75,2-1.11,3.09a6,6,0,0,1-.31,1c-.71,1.24-1.41,2.49-2.2,3.67-1.21,1.81-2.47,3.57-3.73,5.34-.3.43-.68.8-1,1.22-1.92,2.61-3.83,2.84-6.28.74a1.39,1.39,0,0,0-.38-.27,8,8,0,0,1-4.75-6.24,33.29,33.29,0,0,1-.43-4.9,21.27,21.27,0,0,1,.22-3.08c.14-1.2.39-2.39.5-3.6.11-1,0-2.07.14-3.09.29-2.77.66-5.52.93-8.29a4,4,0,0,0-.44-1.37,6.92,6.92,0,0,0-1.27.74,9.57,9.57,0,0,0-2,2q-2.36,3.84-4.47,7.82c-.42.79-.37,1.82-.73,2.66a12.38,12.38,0,0,1-1.79,3.25c-1.35,1.61-1.38,3.56-1.81,5.42-.24,1-.4,2.07-.73,3.06-.52,1.63-2,1.86-3.11.58a5.77,5.77,0,0,0-1.31-1.26,5.7,5.7,0,0,1-3.21-5.8c.16-2,.23-4.07.41-6.1.41-4.85.46-9.73,1.64-14.5a28.11,28.11,0,0,0,.57-4.5,11.07,11.07,0,0,0-.18-2.05l-.47-.1c-.77,1.33-1.59,2.64-2.29,4-1.33,2.58-2.67,5.17-3.86,7.82-.68,1.5-1,3.16-1.6,4.72-.79,2.16-1.66,4.3-2.47,6.47-.34.92-.58,1.89-.89,2.83-.42,1.29-.76,2.61-1.3,3.84-1.06,2.39-2.24,4.72-3.33,7.11a13.82,13.82,0,0,0-.58,2c-1.46-.36-2.87-.6-4.18-1.07a3.59,3.59,0,0,1-2.46-3.67c0-4.5-.06-9,1.31-13.39a22.36,22.36,0,0,0,.35-4c.17-1.58.41-3.15.64-4.85a17.73,17.73,0,0,1-12.21-1.24c1.58,2.15,1.05,6.41-.9,8.58l.77.64c-.29,1.62-.58,3-.77,4.48-.18,1.26-.79.94-1.77.32.1,1.86.25,3.52.24,5.18a9.62,9.62,0,0,1-.52,2.1c-.13.51-.24,1-.32,1.54-.05.25.09.6,0,.76-1.16,1.46-2.34,2.89-3.54,4.32C374.23,98.92,373.79,99.26,373.26,99.76ZM367.65,88c.58,2.26,1,4.2,1.59,6.07.45,1.35,1.3,1.43,2.08.2,1.52-2.41,3.36-4.59,4.27-7.44a77,77,0,0,0,3.7-16.56c.08-1-1.73-3.86-2.65-3.73a3.71,3.71,0,0,0-2.42,1.62,36.17,36.17,0,0,0-3.32,7C369.59,79.48,368.68,83.88,367.65,88Zm25.84-4.08.53.1c1.3-1.24.59-2.68.48-4.06l-.41,0Z"/><path d="M317.1,95.25c0-3,2.28-4.51,5-3.31a8.36,8.36,0,0,1,2.38,1.72,2.82,2.82,0,0,1-.54,4.09,31.06,31.06,0,0,1-3.76,1.45,1,1,0,0,1-.6,0C318.74,99,317.09,96.22,317.1,95.25Z"/><path d="M143.69,77.72,142,79.56c-.17-.81-.51-1.5-.33-1.7a5.26,5.26,0,0,1,1.61-.79Z"/></svg>